<svg aria-hidden="true" style="position: absolute; width: 0; height: 0; overflow: hidden;" version="1.1" xmlns="http://www.w3.org/2000/svg" xmlns:xlink="http://www.w3.org/1999/xlink">
<defs>
<symbol id="icon-burger" viewBox="0 0 32 32">
<path fill="#fff" style="fill: var(--color1, #fff)" d="M32 9c0 0.552-0.448 1-1 1h-30c-0.552 0-1-0.448-1-1s0.448-1 1-1h30c0.552 0 1 0.448 1 1zM32 25c0 0.552-0.448 1-1 1h-30c-0.552 0-1-0.448-1-1s0.448-1 1-1h30c0.552 0 1 0.448 1 1zM32 16.992c0 0.548-0.444 0.992-0.992 0.992h-30.016c-0.548 0-0.992-0.444-0.992-0.992s0.444-0.992 0.992-0.992h30.016c0.548 0 0.992 0.444 0.992 0.992z"></path>
</symbol>
<symbol id="icon-close" viewBox="0 0 32 32">
<path fill="#fff" style="fill: var(--color1, #fff)" d="M17.253 16l6.48-6.48c0.146-0.17 0.222-0.389 0.213-0.612s-0.101-0.436-0.26-0.594c-0.158-0.158-0.37-0.251-0.594-0.26s-0.442 0.067-0.612 0.213l-6.48 6.48-6.48-6.489c-0.17-0.146-0.389-0.222-0.612-0.213s-0.436 0.101-0.594 0.26c-0.158 0.158-0.251 0.371-0.26 0.594s0.067 0.443 0.213 0.612l6.48 6.489-6.489 6.48c-0.093 0.080-0.169 0.178-0.222 0.288s-0.083 0.23-0.088 0.353c-0.005 0.122 0.016 0.244 0.061 0.359s0.112 0.218 0.199 0.304c0.087 0.087 0.19 0.154 0.304 0.199s0.236 0.065 0.359 0.061 0.243-0.035 0.353-0.088c0.11-0.053 0.208-0.129 0.288-0.222l6.489-6.48 6.48 6.48c0.17 0.146 0.389 0.222 0.612 0.213s0.436-0.101 0.594-0.26c0.158-0.158 0.251-0.37 0.26-0.594s-0.067-0.442-0.213-0.613l-6.48-6.48z"></path>
</symbol>
<symbol id="icon-facebook" viewBox="0 0 32 32">
<path fill="#660c0c" style="fill: var(--color2, #660c0c)" d="M2.127 0.027h27.766c0.956 0 1.717 0.761 1.717 1.717v27.785c0 0.937-0.761 1.717-1.717 1.717h-7.961v-12.098h4.059l0.605-4.702h-4.663v-3.005c0-1.366 0.39-2.302 2.341-2.302h2.498v-4.215c-0.429-0.059-1.912-0.176-3.629-0.176-3.61 0-6.068 2.185-6.068 6.224v3.473h-4.078v4.702h4.078v12.098h-14.946c-0.457 0-0.896-0.18-1.221-0.502s-0.51-0.758-0.515-1.215v-27.785c0-0.956 0.78-1.717 1.737-1.717z"></path>
</symbol>
<symbol id="icon-instagram" viewBox="0 0 32 32">
<path fill="#660c0c" style="fill: var(--color2, #660c0c)" d="M9.953 1.694c1.564-0.072 2.063-0.088 6.047-0.088s4.483 0.017 6.045 0.088c1.563 0.071 2.629 0.321 3.563 0.684 0.977 0.371 1.864 0.95 2.597 1.699 0.747 0.734 1.323 1.623 1.691 2.605 0.363 0.936 0.611 2.007 0.683 3.572 0.072 1.572 0.088 2.072 0.088 6.068 0 3.997-0.017 4.498-0.088 6.067-0.071 1.565-0.32 2.635-0.683 3.572-0.368 0.982-0.945 1.872-1.691 2.607-0.733 0.749-1.62 1.327-2.597 1.696-0.933 0.364-2 0.613-3.56 0.685-1.565 0.072-2.064 0.088-6.048 0.088s-4.483-0.017-6.047-0.088c-1.56-0.071-2.627-0.321-3.56-0.685-0.979-0.369-1.866-0.948-2.599-1.696-0.746-0.735-1.324-1.624-1.692-2.606-0.361-0.936-0.609-2.007-0.681-3.572-0.072-1.572-0.088-2.072-0.088-6.068 0-3.997 0.017-4.498 0.088-6.066s0.32-2.638 0.681-3.575c0.369-0.982 0.947-1.871 1.693-2.606 0.732-0.748 1.618-1.328 2.596-1.698 0.933-0.363 2-0.611 3.56-0.684h0.001zM21.927 4.342c-1.547-0.071-2.011-0.086-5.927-0.086s-4.38 0.015-5.927 0.086c-1.431 0.066-2.207 0.305-2.724 0.507-0.684 0.268-1.173 0.585-1.687 1.1-0.487 0.475-0.861 1.053-1.096 1.692-0.201 0.519-0.44 1.298-0.505 2.733-0.071 1.552-0.085 2.017-0.085 5.946s0.015 4.395 0.085 5.947c0.065 1.435 0.304 2.214 0.505 2.733 0.235 0.638 0.609 1.217 1.096 1.692 0.473 0.488 1.051 0.864 1.687 1.1 0.517 0.202 1.293 0.441 2.724 0.507 1.547 0.071 2.009 0.086 5.927 0.086s4.38-0.015 5.927-0.086c1.431-0.066 2.207-0.305 2.724-0.507 0.684-0.268 1.173-0.585 1.687-1.1 0.487-0.475 0.861-1.054 1.096-1.692 0.201-0.519 0.44-1.298 0.505-2.733 0.071-1.552 0.085-2.017 0.085-5.947s-0.015-4.395-0.085-5.946c-0.065-1.435-0.304-2.214-0.505-2.733-0.267-0.686-0.583-1.177-1.096-1.692-0.473-0.488-1.050-0.864-1.687-1.1-0.517-0.202-1.293-0.441-2.724-0.507v0zM14.127 20.857c1.046 0.437 2.211 0.496 3.296 0.167s2.022-1.026 2.652-1.971c0.63-0.945 0.913-2.081 0.801-3.212s-0.612-2.189-1.415-2.991c-0.512-0.513-1.13-0.906-1.812-1.15s-1.408-0.334-2.128-0.263c-0.72 0.071-1.415 0.302-2.036 0.675s-1.151 0.88-1.553 1.483c-0.402 0.603-0.665 1.289-0.772 2.007s-0.052 1.451 0.157 2.145c0.21 0.695 0.571 1.334 1.056 1.872s1.084 0.961 1.752 1.239zM10.669 10.972c0.7-0.702 1.531-1.26 2.446-1.64s1.895-0.576 2.885-0.576 1.97 0.196 2.885 0.576c0.915 0.38 1.746 0.937 2.446 1.64s1.255 1.536 1.634 2.454 0.574 1.901 0.574 2.895c0 0.993-0.195 1.977-0.574 2.895s-0.934 1.752-1.634 2.454c-1.414 1.418-3.331 2.215-5.331 2.215s-3.917-0.797-5.331-2.215c-1.414-1.419-2.208-3.342-2.208-5.349s0.794-3.93 2.208-5.348v0zM25.211 9.884c0.173-0.164 0.312-0.362 0.408-0.581s0.147-0.455 0.151-0.694c0.003-0.239-0.041-0.477-0.131-0.699s-0.223-0.423-0.391-0.592-0.369-0.303-0.59-0.393c-0.221-0.090-0.458-0.135-0.696-0.131s-0.474 0.055-0.692 0.151c-0.218 0.096-0.415 0.236-0.579 0.41-0.318 0.338-0.492 0.788-0.486 1.253s0.194 0.91 0.522 1.239c0.328 0.329 0.771 0.517 1.235 0.524s0.912-0.168 1.249-0.487v0z"></path>
</symbol>
<symbol id="icon-telegram" viewBox="0 0 32 32">
<path fill="#660c0c" style="fill: var(--color2, #660c0c)" d="M31.61 16.18c0 8.649-6.989 15.662-15.61 15.662s-15.61-7.013-15.61-15.662c0-8.649 6.989-15.662 15.61-15.662s15.61 7.013 15.61 15.662zM16.559 12.080c-1.518 0.633-4.553 1.945-9.103 3.934-0.739 0.295-1.127 0.583-1.162 0.865-0.060 0.478 0.536 0.666 1.345 0.92 0.111 0.035 0.225 0.070 0.342 0.11 0.797 0.26 1.869 0.564 2.426 0.576 0.506 0.010 1.071-0.198 1.694-0.627 4.251-2.881 6.446-4.336 6.583-4.367 0.098-0.022 0.233-0.051 0.324 0.031 0.091 0.081 0.082 0.235 0.073 0.277-0.060 0.252-2.394 2.43-3.603 3.558-0.377 0.351-0.644 0.6-0.699 0.658-0.122 0.127-0.247 0.248-0.367 0.364-0.741 0.715-1.296 1.253 0.031 2.13 0.637 0.422 1.147 0.77 1.656 1.117 0.555 0.38 1.11 0.758 1.828 1.231 0.182 0.12 0.356 0.244 0.527 0.365 0.647 0.463 1.228 0.878 1.946 0.813 0.416-0.039 0.848-0.432 1.067-1.605 0.516-2.775 1.534-8.784 1.769-11.261 0.014-0.206 0.006-0.412-0.026-0.616-0.019-0.165-0.099-0.316-0.224-0.424-0.186-0.153-0.475-0.185-0.605-0.183-0.587 0.010-1.487 0.325-5.822 2.134v0z"></path>
</symbol>
<symbol id="icon-viber" viewBox="0 0 32 32">
<path fill="#660c0c" style="fill: var(--color2, #660c0c)" d="M16 28.8c3.395 0 6.65-1.349 9.051-3.749s3.749-5.656 3.749-9.051c0-3.395-1.349-6.65-3.749-9.051s-5.656-3.749-9.051-3.749c-3.395 0-6.65 1.349-9.051 3.749s-3.749 5.656-3.749 9.051c0 3.395 1.349 6.65 3.749 9.051s5.656 3.749 9.051 3.749zM16 32c-8.837 0-16-7.163-16-16s7.163-16 16-16c8.837 0 16 7.163 16 16s-7.163 16-16 16z"></path>
<path fill="#660c0c" style="fill: var(--color2, #660c0c)" d="M21.83 15.046c0.019-2.387-1.95-4.576-4.39-4.878l-0.16-0.024c-0.122-0.024-0.246-0.038-0.371-0.042-0.501 0-0.634 0.362-0.669 0.578-0.020 0.090-0.022 0.183-0.005 0.273s0.051 0.177 0.101 0.253c0.166 0.232 0.458 0.272 0.691 0.307 0.069 0.010 0.134 0.018 0.187 0.032 2.194 0.504 2.933 1.299 3.293 3.544 0.010 0.056 0.013 0.123 0.016 0.195 0.016 0.267 0.050 0.826 0.632 0.826 0.048 0 0.099-0.003 0.154-0.013 0.542-0.085 0.525-0.595 0.517-0.84-0.004-0.059-0.004-0.118 0-0.178 0.002-0.011 0.003-0.021 0.003-0.032l0.002-0.002z"></path>
<path fill="#660c0c" style="fill: var(--color2, #660c0c)" d="M16.768 9.291c0.064 0.005 0.128 0.010 0.178 0.018 3.6 0.573 5.258 2.333 5.717 6.080 0.008 0.064 0.008 0.141 0.010 0.224 0.005 0.293 0.014 0.901 0.648 0.914h0.019c0.087 0.005 0.174-0.009 0.255-0.041s0.155-0.080 0.215-0.143c0.197-0.213 0.184-0.528 0.173-0.784-0.003-0.061-0.006-0.12-0.005-0.171 0.045-3.832-3.168-7.307-6.877-7.435l-0.045 0.002c-0.014 0.002-0.029 0.003-0.043 0.003-0.037 0-0.083-0.003-0.131-0.006-0.064-0.006-0.128-0.009-0.192-0.010-0.59 0-0.702 0.432-0.717 0.691-0.032 0.597 0.526 0.64 0.795 0.659zM22.488 20.23c-0.077-0.060-0.153-0.122-0.229-0.184-0.394-0.326-0.813-0.627-1.216-0.918-0.084-0.061-0.169-0.121-0.253-0.182-0.518-0.374-0.984-0.558-1.424-0.558-0.592 0-1.109 0.339-1.536 1.006-0.189 0.294-0.419 0.438-0.701 0.438-0.197-0.007-0.389-0.057-0.565-0.146-1.672-0.784-2.867-1.984-3.55-3.568-0.33-0.768-0.224-1.267 0.358-1.675 0.33-0.23 0.944-0.661 0.901-1.485-0.048-0.936-2.050-3.752-2.893-4.072-0.36-0.136-0.756-0.137-1.117-0.003-0.968 0.336-1.664 0.928-2.011 1.707-0.336 0.755-0.32 1.64 0.045 2.562 1.051 2.666 2.528 4.989 4.394 6.906 1.824 1.877 4.067 3.413 6.666 4.568 0.234 0.104 0.48 0.16 0.659 0.202l0.152 0.038c0.021 0.006 0.042 0.009 0.064 0.010h0.021c1.222 0 2.69-1.152 3.141-2.467 0.395-1.152-0.326-1.72-0.906-2.176v-0.002zM17.309 12.336c-0.208 0.005-0.645 0.016-0.798 0.474-0.070 0.214-0.062 0.4 0.026 0.552 0.13 0.224 0.379 0.293 0.605 0.33 0.819 0.136 1.242 0.605 1.325 1.472 0.040 0.406 0.304 0.688 0.643 0.688 0.026 0.001 0.051-0.001 0.077-0.003 0.408-0.051 0.605-0.36 0.587-0.92 0.006-0.586-0.29-1.248-0.794-1.776-0.506-0.531-1.115-0.83-1.67-0.816z"></path>
</symbol>
</defs>
</svg>
